<svg width="48" height="48" viewBox="0 0 48 48" fill="none" xmlns="http://www.w3.org/2000/svg">
<path d="M14.4985 12.1381C15.7872 8.65565 20.7127 8.65565 22.0014 12.1381L24.0938 17.793C24.499 18.8878 25.3622 19.7511 26.4571 20.1562L32.1119 22.2487C35.5944 23.5373 35.5944 28.4629 32.1119 29.7515L26.4571 31.844C25.3622 32.2491 24.499 33.1124 24.0938 34.2072L22.0014 39.8621C20.7127 43.3445 15.7872 43.3445 14.4985 39.8621L12.4061 34.2072C12.0009 33.1124 11.1377 32.2491 10.0428 31.844L4.38798 29.7515C0.905505 28.4629 0.905505 23.5373 4.38798 22.2487L10.0428 20.1562C11.1377 19.7511 12.0009 18.8878 12.4061 17.793L14.4985 12.1381Z" fill="url(#paint0_linear_70_356)"/>
<path d="M35.1243 4.06911C35.7686 2.32787 38.2313 2.32787 38.8757 4.06911L39.9219 6.89653C40.1245 7.44396 40.5561 7.87559 41.1035 8.07816L43.9309 9.1244C45.6722 9.76871 45.6722 12.2315 43.9309 12.8758L41.1035 13.922C40.5561 14.1246 40.1245 14.5562 39.9219 15.1037L38.8757 17.9311C38.2313 19.6723 35.7686 19.6723 35.1243 17.9311L34.078 15.1037C33.8754 14.5562 33.4438 14.1246 32.8964 13.922L30.069 12.8758C28.3277 12.2315 28.3277 9.76871 30.069 9.1244L32.8964 8.07816C33.4438 7.87559 33.8754 7.44397 34.078 6.89653L35.1243 4.06911Z" fill="url(#paint1_linear_70_356)"/>
<defs>
<linearGradient id="paint0_linear_70_356" x1="31" y1="2.5" x2="8.99997" y2="47.5" gradientUnits="userSpaceOnUse">
<stop stop-color="#994AFF"/>
<stop offset="0.76" stop-color="#C7EED5"/>
</linearGradient>
<linearGradient id="paint1_linear_70_356" x1="31" y1="2.5" x2="8.99997" y2="47.5" gradientUnits="userSpaceOnUse">
<stop stop-color="#994AFF"/>
<stop offset="0.76" stop-color="#C7EED5"/>
</linearGradient>
</defs>
</svg>
