<svg width="48" height="48" viewBox="0 0 48 48" fill="none" xmlns="http://www.w3.org/2000/svg">
<rect width="48" height="48" rx="8" fill="#343741"/>
<mask id="mask0_41_243" style="mask-type:luminance" maskUnits="userSpaceOnUse" x="10" y="11" width="28" height="26">
<path d="M35.3334 20H12.6667C11.9303 20 11.3334 20.597 11.3334 21.3333V34.6667C11.3334 35.403 11.9303 36 12.6667 36H35.3334C36.0698 36 36.6667 35.403 36.6667 34.6667V21.3333C36.6667 20.597 36.0698 20 35.3334 20Z" fill="white" stroke="white" stroke-width="2" stroke-linecap="round" stroke-linejoin="round"/>
<path d="M13.3334 16H34.6667M18 12H30" stroke="white" stroke-width="2" stroke-linecap="round" stroke-linejoin="round"/>
</mask>
<g mask="url(#mask0_41_243)">
<path d="M8 8H40V40H8V8Z" fill="#FBFBFB"/>
</g>
<path d="M31.329 35.2171C31.6211 34.4279 32.7373 34.4279 33.0293 35.2171L33.5035 36.4986C33.5953 36.7468 33.791 36.9424 34.0391 37.0342L35.3206 37.5084C36.1098 37.8004 36.1098 38.9167 35.3206 39.2087L34.0391 39.6829C33.791 39.7747 33.5953 39.9704 33.5035 40.2185L33.0293 41.5C32.7373 42.2892 31.6211 42.2892 31.329 41.5L30.8548 40.2185C30.763 39.9704 30.5674 39.7747 30.3193 39.6829L29.0377 39.2087C28.2485 38.9167 28.2485 37.8004 29.0377 37.5084L30.3193 37.0342C30.5674 36.9424 30.763 36.7468 30.8548 36.4986L31.329 35.2171Z" fill="#F2C94C"/>
<path d="M31.329 35.2171C31.6211 34.4279 32.7373 34.4279 33.0293 35.2171L33.5035 36.4986C33.5953 36.7468 33.791 36.9424 34.0391 37.0342L35.3206 37.5084C36.1098 37.8004 36.1098 38.9167 35.3206 39.2087L34.0391 39.6829C33.791 39.7747 33.5953 39.9704 33.5035 40.2185L33.0293 41.5C32.7373 42.2892 31.6211 42.2892 31.329 41.5L30.8548 40.2185C30.763 39.9704 30.5674 39.7747 30.3193 39.6829L29.0377 39.2087C28.2485 38.9167 28.2485 37.8004 29.0377 37.5084L30.3193 37.0342C30.5674 36.9424 30.763 36.7468 30.8548 36.4986L31.329 35.2171Z" fill="url(#paint0_linear_41_243)"/>
<path d="M7.29128 22.2171C7.58331 21.4279 8.69955 21.4279 8.99158 22.2171L9.46578 23.4986C9.5576 23.7468 9.75323 23.9424 10.0014 24.0342L11.2829 24.5084C12.0721 24.8005 12.0721 25.9167 11.2829 26.2087L10.0014 26.6829C9.75323 26.7747 9.5576 26.9704 9.46578 27.2185L8.99158 28.5C8.69955 29.2892 7.58331 29.2892 7.29128 28.5L6.81708 27.2185C6.72526 26.9704 6.52963 26.7747 6.28151 26.6829L5 26.2087C4.21079 25.9167 4.21079 24.8005 5 24.5084L6.28151 24.0342C6.52963 23.9424 6.72526 23.7468 6.81708 23.4986L7.29128 22.2171Z" fill="#F2C94C"/>
<path d="M7.29128 22.2171C7.58331 21.4279 8.69955 21.4279 8.99158 22.2171L9.46578 23.4986C9.5576 23.7468 9.75323 23.9424 10.0014 24.0342L11.2829 24.5084C12.0721 24.8005 12.0721 25.9167 11.2829 26.2087L10.0014 26.6829C9.75323 26.7747 9.5576 26.9704 9.46578 27.2185L8.99158 28.5C8.69955 29.2892 7.58331 29.2892 7.29128 28.5L6.81708 27.2185C6.72526 26.9704 6.52963 26.7747 6.28151 26.6829L5 26.2087C4.21079 25.9167 4.21079 24.8005 5 24.5084L6.28151 24.0342C6.52963 23.9424 6.72526 23.7468 6.81708 23.4986L7.29128 22.2171Z" fill="url(#paint1_linear_41_243)"/>
<path d="M33.6203 9.99998C33.9123 9.21078 35.0286 9.21078 35.3206 9.99998L35.7948 11.2815C35.8866 11.5296 36.0823 11.7252 36.3304 11.8171L37.6119 12.2913C38.4011 12.5833 38.4011 13.6995 37.6119 13.9916L36.3304 14.4658C36.0823 14.5576 35.8866 14.7532 35.7948 15.0013L35.3206 16.2828C35.0286 17.072 33.9123 17.072 33.6203 16.2828L33.1461 15.0013C33.0543 14.7532 32.8587 14.5576 32.6105 14.4658L31.329 13.9916C30.5398 13.6995 30.5398 12.5833 31.329 12.2913L32.6105 11.8171C32.8587 11.7252 33.0543 11.5296 33.1461 11.2815L33.6203 9.99998Z" fill="#F2C94C"/>
<path d="M33.6203 9.99998C33.9123 9.21078 35.0286 9.21078 35.3206 9.99998L35.7948 11.2815C35.8866 11.5296 36.0823 11.7252 36.3304 11.8171L37.6119 12.2913C38.4011 12.5833 38.4011 13.6995 37.6119 13.9916L36.3304 14.4658C36.0823 14.5576 35.8866 14.7532 35.7948 15.0013L35.3206 16.2828C35.0286 17.072 33.9123 17.072 33.6203 16.2828L33.1461 15.0013C33.0543 14.7532 32.8587 14.5576 32.6105 14.4658L31.329 13.9916C30.5398 13.6995 30.5398 12.5833 31.329 12.2913L32.6105 11.8171C32.8587 11.7252 33.0543 11.5296 33.1461 11.2815L33.6203 9.99998Z" fill="url(#paint2_linear_41_243)"/>
<defs>
<linearGradient id="paint0_linear_41_243" x1="30.2818" y1="5.4192" x2="7.86899" y2="45.2135" gradientUnits="userSpaceOnUse">
<stop stop-color="#994AFF"/>
<stop offset="0.76" stop-color="#C7EED5"/>
</linearGradient>
<linearGradient id="paint1_linear_41_243" x1="30.2818" y1="5.4192" x2="7.86899" y2="45.2135" gradientUnits="userSpaceOnUse">
<stop stop-color="#994AFF"/>
<stop offset="0.76" stop-color="#C7EED5"/>
</linearGradient>
<linearGradient id="paint2_linear_41_243" x1="30.2818" y1="5.4192" x2="7.86899" y2="45.2135" gradientUnits="userSpaceOnUse">
<stop stop-color="#994AFF"/>
<stop offset="0.76" stop-color="#C7EED5"/>
</linearGradient>
</defs>
</svg>
