<svg width="48" height="48" viewBox="0 0 48 48" fill="none" xmlns="http://www.w3.org/2000/svg">
<rect width="48" height="48" rx="8" fill="#343741"/>
<path d="M18 30.573C20.206 30.573 22 28.779 22 26.573V16.428L31 19.7V27.13C30.3949 26.7694 29.7044 26.5771 29 26.573C26.794 26.573 25 28.367 25 30.573C25 32.779 26.794 34.573 29 34.573C31.206 34.573 33 32.779 33 30.573V19C33.0001 18.7948 32.937 18.5946 32.8193 18.4265C32.7016 18.2585 32.5349 18.1309 32.342 18.061L21.342 14.061C21.191 14.0058 21.0289 13.9878 20.8695 14.0087C20.71 14.0295 20.558 14.0885 20.4263 14.1807C20.2945 14.2729 20.187 14.3955 20.1128 14.5381C20.0386 14.6808 19.9999 14.8392 20 15V23.13C19.3949 22.7694 18.7044 22.5771 18 22.573C15.794 22.573 14 24.367 14 26.573C14 28.779 15.794 30.573 18 30.573Z" fill="#FBFBFB"/>
</svg>
