<svg width="24" height="24" viewBox="0 0 24 24" fill="none" xmlns="http://www.w3.org/2000/svg">
<path d="M11.75 21C11.45 21 11.16 20.91 10.91 20.75C7.22999 18.24 5.62999 16.53 4.73999 15.46C2.86999 13.16 1.96999 10.82 1.99999 8.28C2.01999 5.37 4.35999 3 7.19999 3C9.13999 3 10.52 4.03 11.38 4.96H11.4L11.56 5.15C11.56 5.15 11.6 5.19 11.65 5.21C11.67 5.22 11.71 5.23 11.76 5.23C11.91 5.19 11.95 5.16 11.98 5.13C12.81 4.16 14.24 3 16.3 3C19.14 3 21.48 5.37 21.51 8.28C21.53 10.82 20.63 13.16 18.76 15.45C18.21 16.13 17.55 16.82 16.74 17.55C15.63 18.55 14.24 19.63 12.6 20.73C12.34 20.9 12.05 20.99 11.76 20.99L11.75 21ZM7.19999 4C4.89999 4 3.01999 5.93 2.99999 8.29C2.96999 10.58 3.78999 12.72 5.51999 14.82C6.35999 15.84 7.89999 17.48 11.47 19.91C11.63 20.01 11.86 20.03 12.05 19.91C13.64 18.84 14.99 17.79 16.07 16.82C16.84 16.12 17.47 15.47 17.99 14.83C19.71 12.73 20.54 10.59 20.52 8.3C20.49 5.93 18.6 4 16.31 4C14.62 4 13.44 4.97 12.74 5.79C12.62 5.93 12.49 6.03 12.31 6.11C11.98 6.28 11.54 6.27 11.21 6.11C11.12 6.07 11.04 6.02 10.97 5.96H10.94L10.78 5.79C10.08 4.98 8.89999 4 7.20999 4H7.19999Z" fill="#FBFBFB"/>
</svg>
