<svg width="24" height="24" viewBox="0 0 24 24" fill="none" xmlns="http://www.w3.org/2000/svg">
<path d="M12 21C11.6989 20.9996 11.4049 20.9086 11.1563 20.7389C7.47235 18.2381 5.87719 16.5234 4.99735 15.4514C3.12235 13.1663 2.22469 10.8202 2.25 8.27953C2.27953 5.36813 4.61531 3 7.45688 3C9.52313 3 10.9542 4.16391 11.7877 5.13328C11.8141 5.16368 11.8467 5.18805 11.8833 5.20476C11.9199 5.22146 11.9597 5.23011 12 5.23011C12.0403 5.23011 12.0801 5.22146 12.1167 5.20476C12.1533 5.18805 12.1859 5.16368 12.2123 5.13328C13.0458 4.16297 14.4769 3 16.5431 3C19.3847 3 21.7205 5.36812 21.75 8.28C21.7753 10.8211 20.8767 13.1672 19.0027 15.4519C18.1228 16.5239 16.5277 18.2386 12.8438 20.7394C12.595 20.9089 12.301 20.9998 12 21Z" fill="#FBFBFB"/>
<path d="M4.31684 0.475637C4.55151 -0.158546 5.44849 -0.158546 5.68316 0.475637L6.06421 1.50542C6.13799 1.70481 6.29519 1.86201 6.49458 1.93579L7.52436 2.31684C8.15855 2.55151 8.15855 3.44849 7.52436 3.68316L6.49458 4.06421C6.29519 4.13799 6.13799 4.29519 6.06421 4.49458L5.68316 5.52436C5.44849 6.15855 4.55151 6.15855 4.31684 5.52436L3.93579 4.49458C3.86201 4.29519 3.70481 4.13799 3.50542 4.06421L2.47564 3.68316C1.84145 3.44849 1.84145 2.55151 2.47564 2.31684L3.50542 1.93579C3.70481 1.86201 3.86201 1.70481 3.93579 1.50542L4.31684 0.475637Z" fill="#F2C94C"/>
<path d="M4.31684 0.475637C4.55151 -0.158546 5.44849 -0.158546 5.68316 0.475637L6.06421 1.50542C6.13799 1.70481 6.29519 1.86201 6.49458 1.93579L7.52436 2.31684C8.15855 2.55151 8.15855 3.44849 7.52436 3.68316L6.49458 4.06421C6.29519 4.13799 6.13799 4.29519 6.06421 4.49458L5.68316 5.52436C5.44849 6.15855 4.55151 6.15855 4.31684 5.52436L3.93579 4.49458C3.86201 4.29519 3.70481 4.13799 3.50542 4.06421L2.47564 3.68316C1.84145 3.44849 1.84145 2.55151 2.47564 2.31684L3.50542 1.93579C3.70481 1.86201 3.86201 1.70481 3.93579 1.50542L4.31684 0.475637Z" fill="url(#paint0_linear_14_32)"/>
<path d="M18.5446 13.3171C18.701 12.8943 19.299 12.8943 19.4554 13.3171L19.7095 14.0036C19.7587 14.1365 19.8635 14.2413 19.9964 14.2905L20.6829 14.5446C21.1057 14.701 21.1057 15.299 20.6829 15.4554L19.9964 15.7095C19.8635 15.7587 19.7587 15.8635 19.7095 15.9964L19.4554 16.6829C19.299 17.1057 18.701 17.1057 18.5446 16.6829L18.2905 15.9964C18.2413 15.8635 18.1365 15.7587 18.0036 15.7095L17.3171 15.4554C16.8943 15.299 16.8943 14.701 17.3171 14.5446L18.0036 14.2905C18.1365 14.2413 18.2413 14.1365 18.2905 14.0036L18.5446 13.3171Z" fill="#F2C94C"/>
<path d="M18.5446 13.3171C18.701 12.8943 19.299 12.8943 19.4554 13.3171L19.7095 14.0036C19.7587 14.1365 19.8635 14.2413 19.9964 14.2905L20.6829 14.5446C21.1057 14.701 21.1057 15.299 20.6829 15.4554L19.9964 15.7095C19.8635 15.7587 19.7587 15.8635 19.7095 15.9964L19.4554 16.6829C19.299 17.1057 18.701 17.1057 18.5446 16.6829L18.2905 15.9964C18.2413 15.8635 18.1365 15.7587 18.0036 15.7095L17.3171 15.4554C16.8943 15.299 16.8943 14.701 17.3171 14.5446L18.0036 14.2905C18.1365 14.2413 18.2413 14.1365 18.2905 14.0036L18.5446 13.3171Z" fill="url(#paint1_linear_14_32)"/>
<path d="M4.54456 16.3171C4.70101 15.8943 5.29899 15.8943 5.45544 16.3171L5.70947 17.0036C5.75866 17.1365 5.86346 17.2413 5.99639 17.2905L6.68291 17.5446C7.1057 17.701 7.1057 18.299 6.68291 18.4554L5.99639 18.7095C5.86346 18.7587 5.75866 18.8635 5.70948 18.9964L5.45544 19.6829C5.29899 20.1057 4.70101 20.1057 4.54456 19.6829L4.29053 18.9964C4.24134 18.8635 4.13654 18.7587 4.00361 18.7095L3.31709 18.4554C2.8943 18.299 2.8943 17.701 3.31709 17.5446L4.00361 17.2905C4.13654 17.2413 4.24134 17.1365 4.29053 17.0036L4.54456 16.3171Z" fill="#F2C94C"/>
<path d="M4.54456 16.3171C4.70101 15.8943 5.29899 15.8943 5.45544 16.3171L5.70947 17.0036C5.75866 17.1365 5.86346 17.2413 5.99639 17.2905L6.68291 17.5446C7.1057 17.701 7.1057 18.299 6.68291 18.4554L5.99639 18.7095C5.86346 18.7587 5.75866 18.8635 5.70948 18.9964L5.45544 19.6829C5.29899 20.1057 4.70101 20.1057 4.54456 19.6829L4.29053 18.9964C4.24134 18.8635 4.13654 18.7587 4.00361 18.7095L3.31709 18.4554C2.8943 18.299 2.8943 17.701 3.31709 17.5446L4.00361 17.2905C4.13654 17.2413 4.24134 17.1365 4.29053 17.0036L4.54456 16.3171Z" fill="url(#paint2_linear_14_32)"/>
<defs>
<linearGradient id="paint0_linear_14_32" x1="14.5" y1="-3.5" x2="10.52" y2="27.554" gradientUnits="userSpaceOnUse">
<stop stop-color="#994AFF"/>
<stop offset="0.76" stop-color="#C7EED5"/>
</linearGradient>
<linearGradient id="paint1_linear_14_32" x1="14.5" y1="-3.5" x2="10.52" y2="27.554" gradientUnits="userSpaceOnUse">
<stop stop-color="#994AFF"/>
<stop offset="0.76" stop-color="#C7EED5"/>
</linearGradient>
<linearGradient id="paint2_linear_14_32" x1="14.5" y1="-3.5" x2="10.52" y2="27.554" gradientUnits="userSpaceOnUse">
<stop stop-color="#994AFF"/>
<stop offset="0.76" stop-color="#C7EED5"/>
</linearGradient>
</defs>
</svg>
