<svg width="49" height="48" viewBox="0 0 49 48" fill="none" xmlns="http://www.w3.org/2000/svg">
<g clip-path="url(#clip0_41_312)">
<path d="M0.5 24C0.5 17.6348 3.02856 11.5303 7.52944 7.02944C12.0303 2.52856 18.1348 0 24.5 0C30.8652 0 36.9697 2.52856 41.4706 7.02944C45.9714 11.5303 48.5 17.6348 48.5 24C48.5 30.3652 45.9714 36.4697 41.4706 40.9706C36.9697 45.4714 30.8652 48 24.5 48C18.1348 48 12.0303 45.4714 7.52944 40.9706C3.02856 36.4697 0.5 30.3652 0.5 24ZM24.5 15C26.8869 15 29.1761 15.9482 30.864 17.636C32.5518 19.3239 33.5 21.6131 33.5 24C33.5 26.3869 32.5518 28.6761 30.864 30.364C29.1761 32.0518 26.8869 33 24.5 33C22.1131 33 19.8239 32.0518 18.136 30.364C16.4482 28.6761 15.5 26.3869 15.5 24C15.5 21.6131 16.4482 19.3239 18.136 17.636C19.8239 15.9482 22.1131 15 24.5 15ZM24.5 36C27.6826 36 30.7348 34.7357 32.9853 32.4853C35.2357 30.2348 36.5 27.1826 36.5 24C36.5 20.8174 35.2357 17.7652 32.9853 15.5147C30.7348 13.2643 27.6826 12 24.5 12C21.3174 12 18.2652 13.2643 16.0147 15.5147C13.7643 17.7652 12.5 20.8174 12.5 24C12.5 27.1826 13.7643 30.2348 16.0147 32.4853C18.2652 34.7357 21.3174 36 24.5 36ZM24.5 27C25.2956 27 26.0587 26.6839 26.6213 26.1213C27.1839 25.5587 27.5 24.7956 27.5 24C27.5 23.2044 27.1839 22.4413 26.6213 21.8787C26.0587 21.3161 25.2956 21 24.5 21C23.7044 21 22.9413 21.3161 22.3787 21.8787C21.8161 22.4413 21.5 23.2044 21.5 24C21.5 24.7956 21.8161 25.5587 22.3787 26.1213C22.9413 26.6839 23.7044 27 24.5 27Z" fill="#C7EED5"/>
<path d="M0.5 24C0.5 17.6348 3.02856 11.5303 7.52944 7.02944C12.0303 2.52856 18.1348 0 24.5 0C30.8652 0 36.9697 2.52856 41.4706 7.02944C45.9714 11.5303 48.5 17.6348 48.5 24C48.5 30.3652 45.9714 36.4697 41.4706 40.9706C36.9697 45.4714 30.8652 48 24.5 48C18.1348 48 12.0303 45.4714 7.52944 40.9706C3.02856 36.4697 0.5 30.3652 0.5 24ZM24.5 15C26.8869 15 29.1761 15.9482 30.864 17.636C32.5518 19.3239 33.5 21.6131 33.5 24C33.5 26.3869 32.5518 28.6761 30.864 30.364C29.1761 32.0518 26.8869 33 24.5 33C22.1131 33 19.8239 32.0518 18.136 30.364C16.4482 28.6761 15.5 26.3869 15.5 24C15.5 21.6131 16.4482 19.3239 18.136 17.636C19.8239 15.9482 22.1131 15 24.5 15ZM24.5 36C27.6826 36 30.7348 34.7357 32.9853 32.4853C35.2357 30.2348 36.5 27.1826 36.5 24C36.5 20.8174 35.2357 17.7652 32.9853 15.5147C30.7348 13.2643 27.6826 12 24.5 12C21.3174 12 18.2652 13.2643 16.0147 15.5147C13.7643 17.7652 12.5 20.8174 12.5 24C12.5 27.1826 13.7643 30.2348 16.0147 32.4853C18.2652 34.7357 21.3174 36 24.5 36ZM24.5 27C25.2956 27 26.0587 26.6839 26.6213 26.1213C27.1839 25.5587 27.5 24.7956 27.5 24C27.5 23.2044 27.1839 22.4413 26.6213 21.8787C26.0587 21.3161 25.2956 21 24.5 21C23.7044 21 22.9413 21.3161 22.3787 21.8787C21.8161 22.4413 21.5 23.2044 21.5 24C21.5 24.7956 21.8161 25.5587 22.3787 26.1213C22.9413 26.6839 23.7044 27 24.5 27Z" fill="url(#paint0_linear_41_312)"/>
</g>
<defs>
<linearGradient id="paint0_linear_41_312" x1="38" y1="-17" x2="20.6448" y2="55.3835" gradientUnits="userSpaceOnUse">
<stop stop-color="#994AFF"/>
<stop offset="0.76" stop-color="#C7EED5"/>
</linearGradient>
<clipPath id="clip0_41_312">
<rect width="48" height="48" fill="white" transform="translate(0.5)"/>
</clipPath>
</defs>
</svg>
