<svg width="42" height="49" viewBox="0 0 42 49" fill="none" xmlns="http://www.w3.org/2000/svg">
<g clip-path="url(#clip0_70_361)">
<path d="M0.727161 40.0764C0.762882 38.5736 1.25022 37.2493 2.18662 36.1216C2.75433 35.4378 3.00183 34.7552 2.8666 33.8495C2.72754 32.9092 3.24167 32.1412 3.83489 31.4383C5.78169 29.1317 7.71446 26.815 9.65743 24.5058C12.709 20.8789 15.7619 17.2545 18.8173 13.6313C19.3506 12.9986 19.422 13.0062 19.7371 13.8125C20.227 15.0653 20.7922 16.2696 21.6597 17.317C22.6829 18.5506 23.9395 19.4704 25.367 20.1747C25.6911 20.3341 26.0304 20.4668 26.3392 20.6518C26.9235 21.0014 26.9885 21.4912 26.4884 21.948C25.8148 22.5654 25.1157 23.1548 24.4141 23.7404C19.0763 28.1902 13.7233 32.6235 8.40591 37.0988C7.52054 37.8438 6.61859 37.8974 5.61584 37.5874C5.21653 37.4637 4.9448 37.544 4.64627 37.826C3.64991 38.7713 3.41772 40.2397 4.17807 41.504C5.01879 42.9009 6.27541 43.8539 7.7859 44.4089C8.85626 44.8018 9.83731 44.4701 10.6398 43.6549C12.3595 41.9097 13.87 39.9909 15.3562 38.0492C16.4789 36.5821 17.5735 35.0742 19.0215 33.9018C21.6138 31.8019 24.5595 31.3566 27.7361 32.205C30.5976 32.9692 32.9131 34.6251 34.9467 36.7122C36.4827 38.2891 37.7355 40.0841 38.8415 41.9824C38.9691 42.2018 39.0916 42.4289 39.1834 42.6662C39.4947 43.4686 39.2268 44.1856 38.4945 44.5543C37.8146 44.8975 37.0631 44.678 36.6332 43.9585C35.5284 42.1112 34.319 40.343 32.8213 38.7879C31.6335 37.5542 30.3093 36.4966 28.7695 35.7286C25.1706 33.9362 21.7069 34.6825 19.2115 37.8362C17.6296 39.8353 16.1255 41.8982 14.5397 43.8947C13.8023 44.8247 12.9999 45.7178 12.0023 46.3914C10.0121 47.736 7.92623 47.9044 5.79828 46.7664C4.04539 45.8288 2.59997 44.5262 1.52961 42.8359C0.993793 41.99 0.747573 41.0524 0.724609 40.0764H0.727161Z" fill="#C7EED5"/>
<path d="M0.727161 40.0764C0.762882 38.5736 1.25022 37.2493 2.18662 36.1216C2.75433 35.4378 3.00183 34.7552 2.8666 33.8495C2.72754 32.9092 3.24167 32.1412 3.83489 31.4383C5.78169 29.1317 7.71446 26.815 9.65743 24.5058C12.709 20.8789 15.7619 17.2545 18.8173 13.6313C19.3506 12.9986 19.422 13.0062 19.7371 13.8125C20.227 15.0653 20.7922 16.2696 21.6597 17.317C22.6829 18.5506 23.9395 19.4704 25.367 20.1747C25.6911 20.3341 26.0304 20.4668 26.3392 20.6518C26.9235 21.0014 26.9885 21.4912 26.4884 21.948C25.8148 22.5654 25.1157 23.1548 24.4141 23.7404C19.0763 28.1902 13.7233 32.6235 8.40591 37.0988C7.52054 37.8438 6.61859 37.8974 5.61584 37.5874C5.21653 37.4637 4.9448 37.544 4.64627 37.826C3.64991 38.7713 3.41772 40.2397 4.17807 41.504C5.01879 42.9009 6.27541 43.8539 7.7859 44.4089C8.85626 44.8018 9.83731 44.4701 10.6398 43.6549C12.3595 41.9097 13.87 39.9909 15.3562 38.0492C16.4789 36.5821 17.5735 35.0742 19.0215 33.9018C21.6138 31.8019 24.5595 31.3566 27.7361 32.205C30.5976 32.9692 32.9131 34.6251 34.9467 36.7122C36.4827 38.2891 37.7355 40.0841 38.8415 41.9824C38.9691 42.2018 39.0916 42.4289 39.1834 42.6662C39.4947 43.4686 39.2268 44.1856 38.4945 44.5543C37.8146 44.8975 37.0631 44.678 36.6332 43.9585C35.5284 42.1112 34.319 40.343 32.8213 38.7879C31.6335 37.5542 30.3093 36.4966 28.7695 35.7286C25.1706 33.9362 21.7069 34.6825 19.2115 37.8362C17.6296 39.8353 16.1255 41.8982 14.5397 43.8947C13.8023 44.8247 12.9999 45.7178 12.0023 46.3914C10.0121 47.736 7.92623 47.9044 5.79828 46.7664C4.04539 45.8288 2.59997 44.5262 1.52961 42.8359C0.993793 41.99 0.747573 41.0524 0.724609 40.0764H0.727161Z" fill="url(#paint0_linear_70_361)"/>
<path d="M20.8751 9.98129C20.8496 8.11614 21.1851 6.64265 21.9187 5.26228C22.4838 4.19831 22.6561 4.17152 23.3654 5.12323C24.215 6.26375 25.0188 7.43872 25.9437 8.52183C28.4977 11.5122 31.4243 14.079 34.703 16.2465C36.1472 17.2008 36.1446 17.4968 34.6928 18.4383C31.719 20.3672 27.4401 20.0534 24.6335 17.7021C22.1636 15.6329 20.879 12.8862 20.8751 9.98257V9.98129Z" fill="#C7EED5"/>
<path d="M20.8751 9.98129C20.8496 8.11614 21.1851 6.64265 21.9187 5.26228C22.4838 4.19831 22.6561 4.17152 23.3654 5.12323C24.215 6.26375 25.0188 7.43872 25.9437 8.52183C28.4977 11.5122 31.4243 14.079 34.703 16.2465C36.1472 17.2008 36.1446 17.4968 34.6928 18.4383C31.719 20.3672 27.4401 20.0534 24.6335 17.7021C22.1636 15.6329 20.879 12.8862 20.8751 9.98257V9.98129Z" fill="url(#paint1_linear_70_361)"/>
<path d="M39.63 10.6601C39.6797 11.6552 39.5088 12.6554 39.1834 13.6313C38.8301 14.6889 37.9753 15.0334 37.03 14.4593C33.7717 12.4806 30.9013 10.0414 28.4225 7.14413C27.5511 6.12736 26.7219 5.07614 25.9947 3.94965C25.2203 2.74917 25.4844 1.95565 26.8035 1.38794C32.6363 -1.11891 38.4894 3.03621 39.4973 8.65335C39.6146 9.30526 39.6491 9.961 39.63 10.6588V10.6601Z" fill="#C7EED5"/>
<path d="M39.63 10.6601C39.6797 11.6552 39.5088 12.6554 39.1834 13.6313C38.8301 14.6889 37.9753 15.0334 37.03 14.4593C33.7717 12.4806 30.9013 10.0414 28.4225 7.14413C27.5511 6.12736 26.7219 5.07614 25.9947 3.94965C25.2203 2.74917 25.4844 1.95565 26.8035 1.38794C32.6363 -1.11891 38.4894 3.03621 39.4973 8.65335C39.6146 9.30526 39.6491 9.961 39.63 10.6588V10.6601Z" fill="url(#paint2_linear_70_361)"/>
</g>
<defs>
<linearGradient id="paint0_linear_70_361" x1="40.102" y1="-15.1735" x2="8.54495" y2="52.5232" gradientUnits="userSpaceOnUse">
<stop stop-color="#994AFF"/>
<stop offset="0.76" stop-color="#C7EED5"/>
</linearGradient>
<linearGradient id="paint1_linear_70_361" x1="40.102" y1="-15.1735" x2="8.54495" y2="52.5232" gradientUnits="userSpaceOnUse">
<stop stop-color="#994AFF"/>
<stop offset="0.76" stop-color="#C7EED5"/>
</linearGradient>
<linearGradient id="paint2_linear_70_361" x1="40.102" y1="-15.1735" x2="8.54495" y2="52.5232" gradientUnits="userSpaceOnUse">
<stop stop-color="#994AFF"/>
<stop offset="0.76" stop-color="#C7EED5"/>
</linearGradient>
<clipPath id="clip0_70_361">
<rect width="40.1633" height="48" fill="white" transform="translate(0.918335 0.5)"/>
</clipPath>
</defs>
</svg>
