<svg width="108" height="54" viewBox="0 0 108 54" fill="none" xmlns="http://www.w3.org/2000/svg">
<g clip-path="url(#clip0_41_290)">
<path d="M23.7039 9.46879C14.0194 14.026 9.86516 25.5648 14.4223 35.2493C18.9795 44.9338 30.5183 49.088 40.2028 44.5308C49.8873 39.9737 54.0415 28.4348 49.4844 18.7503C44.9272 9.06586 33.3884 4.91162 23.7039 9.46879ZM34.9474 18.6835C36.1986 18.0947 37.6851 18.6299 38.2739 19.8811C38.8627 21.1323 38.3275 22.6189 37.0763 23.2077C35.8251 23.7964 34.3386 23.2612 33.7498 22.01C33.161 20.7588 33.6962 19.2723 34.9474 18.6835ZM23.6371 24.0058C24.8883 23.417 26.3748 23.9522 26.9636 25.2034C27.5523 26.4546 27.0172 27.9411 25.766 28.5299C24.5148 29.1187 23.0282 28.5835 22.4394 27.3323C21.8507 26.0811 22.3859 24.5945 23.6371 24.0058ZM43.0689 29.5573C42.1919 32.9229 39.8891 35.6989 36.7434 37.1791C33.5977 38.6594 29.9909 38.6643 26.8386 37.1947C25.335 36.4949 26.3954 34.2345 27.8956 34.9273C30.3739 36.0837 33.2015 36.0742 35.6756 34.91C38.1497 33.7457 39.9561 31.5661 40.6481 28.9265C41.0564 27.3356 43.481 27.956 43.0689 29.5573Z" fill="#C7EED5"/>
<path d="M23.7039 9.46879C14.0194 14.026 9.86516 25.5648 14.4223 35.2493C18.9795 44.9338 30.5183 49.088 40.2028 44.5308C49.8873 39.9737 54.0415 28.4348 49.4844 18.7503C44.9272 9.06586 33.3884 4.91162 23.7039 9.46879ZM34.9474 18.6835C36.1986 18.0947 37.6851 18.6299 38.2739 19.8811C38.8627 21.1323 38.3275 22.6189 37.0763 23.2077C35.8251 23.7964 34.3386 23.2612 33.7498 22.01C33.161 20.7588 33.6962 19.2723 34.9474 18.6835ZM23.6371 24.0058C24.8883 23.417 26.3748 23.9522 26.9636 25.2034C27.5523 26.4546 27.0172 27.9411 25.766 28.5299C24.5148 29.1187 23.0282 28.5835 22.4394 27.3323C21.8507 26.0811 22.3859 24.5945 23.6371 24.0058ZM43.0689 29.5573C42.1919 32.9229 39.8891 35.6989 36.7434 37.1791C33.5977 38.6594 29.9909 38.6643 26.8386 37.1947C25.335 36.4949 26.3954 34.2345 27.8956 34.9273C30.3739 36.0837 33.2015 36.0742 35.6756 34.91C38.1497 33.7457 39.9561 31.5661 40.6481 28.9265C41.0564 27.3356 43.481 27.956 43.0689 29.5573Z" fill="url(#paint0_linear_41_290)"/>
</g>
<g clip-path="url(#clip1_41_290)">
<path d="M84.296 9.46896C74.6116 4.91179 63.0727 9.06603 58.5155 18.7505C53.9584 28.435 58.1126 39.9738 67.7971 44.531C77.4816 49.0882 89.0204 44.9339 93.5776 35.2495C98.1348 25.565 93.9805 14.0261 84.296 9.46896ZM84.3629 24.0059C85.6141 24.5947 86.1492 26.0812 85.5605 27.3324C84.9717 28.5837 83.4852 29.1188 82.234 28.5301C80.9828 27.9413 80.4476 26.4548 81.0363 25.2036C81.6251 23.9523 83.1116 23.4172 84.3629 24.0059ZM73.0525 18.6837C74.3037 19.2725 74.8389 20.759 74.2501 22.0102C73.6614 23.2614 72.1748 23.7966 70.9236 23.2078C69.6724 22.6191 69.1372 21.1325 69.726 19.8813C70.3148 18.6301 71.8013 18.0949 73.0525 18.6837ZM81.1613 37.1949C78.009 38.6645 74.4022 38.6595 71.2565 37.1793C68.1109 35.699 65.808 32.9231 64.931 29.5575C64.5118 27.9528 66.9294 27.3291 67.3519 28.9266C68.0405 31.5733 69.8502 33.7459 72.3243 34.9101C74.7985 36.0744 77.6293 36.0768 80.1043 34.9275C81.5904 34.228 82.6578 36.4917 81.1613 37.1949Z" fill="#C7EED5"/>
<path d="M84.296 9.46896C74.6116 4.91179 63.0727 9.06603 58.5155 18.7505C53.9584 28.435 58.1126 39.9738 67.7971 44.531C77.4816 49.0882 89.0204 44.9339 93.5776 35.2495C98.1348 25.565 93.9805 14.0261 84.296 9.46896ZM84.3629 24.0059C85.6141 24.5947 86.1492 26.0812 85.5605 27.3324C84.9717 28.5837 83.4852 29.1188 82.234 28.5301C80.9828 27.9413 80.4476 26.4548 81.0363 25.2036C81.6251 23.9523 83.1116 23.4172 84.3629 24.0059ZM73.0525 18.6837C74.3037 19.2725 74.8389 20.759 74.2501 22.0102C73.6614 23.2614 72.1748 23.7966 70.9236 23.2078C69.6724 22.6191 69.1372 21.1325 69.726 19.8813C70.3148 18.6301 71.8013 18.0949 73.0525 18.6837ZM81.1613 37.1949C78.009 38.6645 74.4022 38.6595 71.2565 37.1793C68.1109 35.699 65.808 32.9231 64.931 29.5575C64.5118 27.9528 66.9294 27.3291 67.3519 28.9266C68.0405 31.5733 69.8502 33.7459 72.3243 34.9101C74.7985 36.0744 77.6293 36.0768 80.1043 34.9275C81.5904 34.228 82.6578 36.4917 81.1613 37.1949Z" fill="url(#paint1_linear_41_290)"/>
</g>
<defs>
<linearGradient id="paint0_linear_41_290" x1="16.1001" y1="6.15834" x2="53.9759" y2="41.1265" gradientUnits="userSpaceOnUse">
<stop stop-color="#994AFF"/>
<stop offset="0.76" stop-color="#C7EED5"/>
</linearGradient>
<linearGradient id="paint1_linear_41_290" x1="82" y1="1.5" x2="79.1995" y2="52.9733" gradientUnits="userSpaceOnUse">
<stop stop-color="#994AFF"/>
<stop offset="0.76" stop-color="#C7EED5"/>
</linearGradient>
<clipPath id="clip0_41_290">
<rect width="38.75" height="40" fill="white" transform="translate(5.90674 17.1528) rotate(-25.2)"/>
</clipPath>
<clipPath id="clip1_41_290">
<rect width="38.75" height="40" fill="white" transform="translate(67.0311 0.654053) rotate(25.2)"/>
</clipPath>
</defs>
</svg>
