<?xml version="1.0" encoding="utf-8"?>
<!DOCTYPE svg PUBLIC "-//W3C//DTD SVG 1.0//EN" "http://www.w3.org/TR/2001/REC-SVG-20010904/DTD/svg10.dtd">
<svg version="1.0" xmlns="http://www.w3.org/2000/svg" width="629px" height="629px" viewBox="0 0 629 629" preserveAspectRatio="xMidYMid meet">
 <g fill="#1a1c1c">
  <path d="M277.5 628.3 c-62.3 -8.8 -113.2 -30.4 -160.5 -68.2 -12.2 -9.7 -36.4 -33.9 -46.1 -46.1 -38.6 -48.3 -61.1 -102.1 -68.4 -163.5 -2.1 -17.2 -2.1 -52.8 0 -70 7.3 -61.4 29.8 -115.2 68.4 -163.5 9.7 -12.2 33.9 -36.4 46.1 -46.1 48.3 -38.6 102.1 -61.1 163.5 -68.4 17.2 -2.1 52.8 -2.1 70 0 61.4 7.3 115.2 29.8 163.5 68.4 12.2 9.7 36.4 33.9 46.1 46.1 34.7 43.4 55.8 90.1 66.1 146 2.2 11.7 2.3 15 2.3 52.5 0 37.5 -0.1 40.8 -2.3 52.5 -10.3 55.9 -31.4 102.6 -66.1 146 -9.7 12.2 -33.9 36.4 -46.1 46.1 -43.2 34.5 -89.7 55.6 -145.5 66 -10.9 2.1 -15.4 2.3 -50 2.5 -20.9 0.1 -39.3 0 -41 -0.3z m42.5 -11.3 c30.5 -3.7 60.8 -12.8 83.7 -25 9.9 -5.3 32.3 -20 41 -26.8 19.3 -15.4 43.2 -42.7 56.2 -64.5 13 -21.7 26 -57.7 30.1 -83.2 3.3 -20.5 4.1 -49.5 2 -67.7 -5.8 -48.4 -27.4 -99 -57.4 -134.2 -9.5 -11.2 -28 -29.3 -41.1 -40.2 l-5 -4.2 -3.1 4.2 c-7.2 9.5 -7.6 8 3.8 17.6 23.3 19.6 39.3 37.8 52.6 60 15.9 26.4 25 51.9 30.4 85 2.9 18.3 3.2 57.5 0.5 75 -2.3 15 -7.1 34.5 -10.9 44.5 -4.9 12.8 -15.1 33.2 -21.8 43.4 -20.9 32 -56.4 63.2 -90.4 79.1 -28.1 13.3 -53 18.9 -87.8 19.7 -32.7 0.8 -52 -1.7 -77.7 -10.3 -51.5 -17.1 -86 -47.3 -104.6 -91.6 -5.9 -14 -11.5 -35.6 -11.5 -44.4 l0 -6.3 51.3 -0.3 51.2 -0.3 5.5 -3.5 5.5 -3.5 -56.9 -0.3 -56.8 -0.2 0.4 -8 c0.3 -7.1 0.6 -8.3 3 -10.7 l2.7 -2.7 68.8 -0.1 68.8 0 6.4 4.4 c12.3 8.4 22.9 11.7 35 10.8 14.5 -1 26.1 -6.7 38.6 -19.2 9.2 -9.1 15.2 -19.8 18.1 -32 4.3 -18.7 -3.8 -42.1 -19.9 -57.2 -6.7 -6.2 -20.6 -14.2 -28.7 -16.3 -11.4 -3.1 -26.6 -0.3 -37.6 6.8 -13.8 9 -22.1 19.1 -26.6 32.5 l-2.7 8.2 -12.7 0.3 -12.7 0.3 0.6 -7.3 c1 -12.4 8 -29.3 16.6 -39.8 17.3 -21.3 38 -31 66.3 -31 16.9 0 30.5 4 44.9 13.2 6.6 4.2 18.1 14.7 22.1 20.2 l2.8 3.9 0 -2.9 c0 -4.8 -2.8 -15.1 -5.6 -20.5 -8.9 -17.6 -36.2 -31.3 -62.4 -31.3 -14.1 0 -23.9 2.3 -37.9 9 -13.6 6.5 -22.3 12.7 -32.1 23 -14.5 15.3 -23.7 33.1 -26.8 52.1 l-1.7 10.3 -14.9 0 c-13.1 0 -15.5 0.3 -19.3 2.1 -2.4 1.1 -4.3 2.4 -4.3 2.7 0 1.1 87 0.6 87.9 -0.4 0.5 -0.5 1.4 -3.1 2 -5.8 2.8 -11.3 10.9 -20.9 22.6 -26.7 6.9 -3.3 7.2 -3.4 20 -3.4 12.8 0 13.1 0.1 20 3.4 21.8 10.7 31.2 35.1 23.4 60.8 -3.9 12.7 -15.7 24 -29.6 28.3 -12.7 3.9 -30.8 2 -39.4 -4.1 l-3.4 -2.4 -74.6 0.5 -74.5 0.5 -4.2 2.8 c-6.6 4.3 -8.5 9.2 -9 22.2 -0.9 26.7 6.9 59.9 20.8 87.7 20.2 40.6 58.5 70.2 109.8 84.8 35.5 10.1 60.5 12.6 90.2 9z m-159.7 -116 c-0.8 -3.7 -1.3 -9.4 -1.1 -13.2 0.4 -8.2 2.3 -10.8 8 -10.8 3.1 0 4.7 0.8 8.3 4.1 2.5 2.3 4.5 3.8 4.5 3.3 0 -0.5 30.6 -0.8 70.7 -0.6 45.2 0.2 73 -0.1 77.3 -0.7 8.1 -1.3 20.7 -5.4 26.9 -8.8 9 -5 24.7 -17.5 28.4 -22.7 l2.2 -3.1 -4.5 3.6 c-6.4 5 -12.1 8.5 -18.7 11.5 -12.8 5.6 -10 5.5 -112.8 6.1 -52.2 0.3 -95.7 0.9 -96.6 1.4 -0.9 0.4 -2.6 2.8 -3.9 5.2 l-2.4 4.4 4.6 7.9 c2.6 4.4 5.9 10.5 7.4 13.6 1.5 3.2 2.9 5.6 3 5.5 0.1 -0.1 -0.4 -3.1 -1.3 -6.7z m127.3 -113.8 c1.7 -0.6 4.1 -1.5 5.2 -2.1 2.1 -1.1 7.3 -8 8.5 -11.2 1 -2.8 -3.1 -9.6 -6.9 -11.4 -3.3 -1.5 -3.6 -1.5 -6.4 0.5 -4.9 3.5 -5.9 5.7 -5.3 11.1 0.3 2.7 0.4 5 0.2 5.1 -0.2 0.1 -26.9 0.4 -59.4 0.7 -55.1 0.6 -59.2 0.7 -62.5 2.5 -1.9 1 -4.3 2.6 -5.4 3.5 -1.7 1.5 -0.7 1.6 14.5 2.1 25.4 0.9 114 0.2 117.5 -0.8z m-82.2 -115.8 c19.7 -19.7 42.1 -31.6 68.6 -36.5 8.5 -1.6 35.7 -1.6 44 0 17.2 3.2 38.3 12.4 51.7 22.5 7.6 5.8 7.7 5.7 3.4 -3.4 -5.7 -12 -18.5 -22.9 -33.8 -28.8 -26.9 -10.3 -54.5 -11.3 -80.8 -2.7 -16.3 5.3 -36.8 16.9 -50.3 28.5 -7 5.9 -18 19.9 -21.9 27.7 -3.4 6.9 -6.2 16.9 -6.3 22.6 0 2.3 1.3 0.9 7.2 -8 4.7 -7.1 11 -14.6 18.2 -21.9z m198.4 -110 l4.1 -6.1 -4.2 -3.1 c-2.3 -1.6 -8.7 -7.1 -14.2 -12.2 -30.1 -27.6 -46.8 -54.2 -51.5 -82 -2.2 -12.7 -3.3 -10.8 -2.7 4.5 0.7 15.4 3.3 27.9 8.5 40.3 5.2 12.3 18 29.6 34.3 46.2 5.8 6 21 19.3 21.4 18.8 0.1 -0.2 2 -3.1 4.3 -6.4z"/>
 </g>
 <g fill="#ffffff">
  <path d="M272 620.6 c-75 -9.8 -129.3 -42.9 -155 -94.4 -14.4 -28.8 -21.6 -60.3 -20.8 -90.7 0.4 -16.3 1.9 -20.6 9 -25.2 l4.2 -2.8 75 -0.5 c41.3 -0.3 75.7 -0.9 76.4 -1.4 0.9 -0.5 3.1 0.4 6.5 2.7 22.2 15.1 55.4 2.6 63.8 -24.1 6.9 -22.1 -2.9 -44.2 -24 -54.5 -6.1 -2.9 -7.4 -3.2 -16.6 -3.2 -9.4 0 -10.5 0.2 -17 3.4 -11.7 5.8 -19.8 15.4 -22.6 26.7 -0.6 2.7 -1.5 5.3 -2 5.8 -0.8 0.9 -97.9 1.5 -97.9 0.7 0 -1.9 5.3 -7.5 8.6 -9.1 3.5 -1.7 6.1 -2 19 -2 l14.9 0 1.7 -10.3 c3.1 -19 12.3 -36.8 26.8 -52.1 9.8 -10.3 18.5 -16.5 32.1 -23 15 -7.1 23.6 -9.1 40.9 -9 10.9 0 15.1 0.4 22 2.2 21.6 5.9 36.8 16.1 43.4 29.1 3.6 7.1 5.4 15.7 6.1 29.1 0.5 9.6 0.4 11.2 -0.7 9.6 -0.7 -1 -3.4 -5.1 -5.9 -9 -11 -17 -32.6 -32 -52.1 -36 -24.7 -5.1 -51.7 2.7 -69.4 20.1 -13.3 13.1 -22.6 30.2 -25 45.8 l-0.6 4.6 9.6 -0.3 9.7 -0.3 2.7 -8.2 c7.4 -21.9 27.9 -38.2 51.2 -40.8 9.9 -1.1 19.4 0.9 30.8 6.5 23.1 11.4 36.6 31.7 37.9 57 1 19.7 -5.2 35.6 -19.2 49.5 -13.5 13.4 -24.3 18.5 -41.4 19.3 -15.6 0.7 -25.2 -2 -38.2 -10.9 l-6.4 -4.4 -65.9 0.1 -65.8 0.1 -2.5 2.6 c-1.9 1.8 -2.7 3.9 -3.1 7.6 l-0.5 5.1 58.2 0 c39.4 0 58.1 0.3 58.1 1 0 2.3 -3.4 6.1 -8.3 9.2 l-5.2 3.3 -51.2 0.3 -51.3 0.3 0 3.3 c0 6 6.6 29.8 11.5 41.4 18.6 44.3 53.1 74.5 104.6 91.6 25.1 8.4 45.6 11.2 74.8 10.3 48 -1.4 84.6 -14.5 124.1 -44.3 11.1 -8.4 30 -26.7 38.7 -37.5 12.9 -16 25.9 -39.1 34.1 -60.4 3.8 -10 8.6 -29.5 10.9 -44.5 2.6 -17.1 2.4 -50.9 -0.6 -69 -5.3 -33 -14.4 -58.6 -30.3 -85 -13.5 -22.5 -28.6 -39.7 -53.1 -60.4 -6.4 -5.5 -11.7 -10.4 -11.7 -10.9 0 -0.8 1.7 -3.2 9.3 -13.4 4.5 -6.1 4.6 -6.1 13.7 1.6 33.6 28.2 57.1 56.9 72.1 88.1 16.7 34.7 25.1 66.2 26.9 101.5 2.1 43.2 -5 81.5 -22.3 120.2 -9.6 21.4 -21.3 38.9 -39.1 58.6 -16.4 18.1 -25.4 25.8 -46.3 39.8 -28.2 18.9 -51.5 28.6 -84.8 35.4 -23.1 4.7 -54.1 6.5 -72.5 4.1z"/>
  <path d="M205.1 557.9 c-23.6 -15.2 -39 -31.8 -50.1 -53.9 -1.8 -3.6 -5.1 -9.6 -7.3 -13.4 -2.8 -4.6 -4.1 -8 -4 -10.2 0.1 -4.5 4.7 -12.2 7.6 -12.8 1.2 -0.3 44.5 -0.7 96.2 -1 101.7 -0.5 99 -0.4 111.8 -6 18.7 -8.4 37.7 -27.5 45.7 -46.1 3.6 -8.3 8 -24.5 8.7 -31.7 0.3 -3.7 1 -6.8 1.5 -6.8 1.1 0 0.3 9.3 -1.7 21.6 -3.6 21.8 -14.8 44.3 -29.6 59.5 -6.8 7 -18.5 16.1 -26 20.2 -6.3 3.4 -18.9 7.5 -26.8 8.7 -4.1 0.7 -33.3 0.9 -77.4 0.8 -38.9 -0.2 -70.7 -0.1 -70.7 0.2 0.1 0.9 15.2 12.6 26 20.1 21.3 14.9 41.6 24.3 61.8 28.5 6.4 1.4 11.9 2.8 12.2 3.1 1.1 1.2 -15.3 -0.8 -25.2 -3.1 -13.3 -3.2 -23 -6.7 -35.2 -12.8 -18.1 -9 -35.2 -21.8 -45.9 -34.3 -2.7 -3 -6 -6.3 -7.3 -7.2 -2.3 -1.4 -2.6 -1.4 -4.4 0.2 -6 5.5 -1.4 25.4 9.9 42.8 8.2 12.5 26.3 30 39.7 38.4 1 0.6 1.4 1.2 0.9 1.2 -0.6 0.1 -5.3 -2.6 -10.4 -6z"/>
  <path d="M427.3 445.8 c15.3 -37 17.2 -44.7 17.1 -71.3 0 -9.9 -0.3 -19.2 -0.7 -20.7 -0.4 -1.6 -0.3 -2.8 0.2 -2.8 2.6 0 4.5 27.6 3 43.1 -0.9 10.2 -3.8 22.2 -7.5 31.6 -3.1 8.1 -10.4 21.3 -11.7 21.3 -0.5 0 -0.7 -0.6 -0.4 -1.2z"/>
  <path d="M148.5 391.1 c-0.6 -0.6 1.6 -5.5 3.3 -7.5 0.9 -1 3.5 -2.8 5.7 -4 3.9 -2.1 5.1 -2.1 63 -2.7 32.5 -0.3 59.1 -0.6 59.3 -0.7 0.1 -0.1 -0.4 -1.5 -1.2 -3 -1.3 -2.5 -1.3 -3.2 0 -5.8 2.4 -4.9 8.3 -9.4 12.2 -9.4 5.5 0 9.9 2.7 12.2 7.4 3.4 7.1 2.1 13.2 -4.4 20.1 -5.7 6 -5.3 5.9 -80.9 6 -37.9 0 -69 -0.2 -69.2 -0.4z"/>
  <path d="M176.5 313 c-0.7 -4.2 -0.1 -12.3 1.7 -22.5 1.5 -8.9 7.7 -20.8 15.7 -30.4 11.3 -13.6 23.8 -23.2 42.1 -32.3 21.3 -10.6 36.8 -14.2 60 -14.2 12.3 0 16.3 0.4 26.5 2.8 15.9 3.7 26.2 7.8 35.3 14 8.8 5.9 16.5 15.4 19.9 24.3 2.5 6.5 6.4 23.3 5.4 23.3 -0.3 0 -1.8 -2 -3.4 -4.4 -9.3 -14.7 -38.8 -31 -64.7 -35.7 -8.3 -1.5 -29.6 -1.5 -38 0 -17.3 3.1 -33.9 10 -50.4 20.8 -15.1 9.9 -36.8 35 -46.2 53.4 -1.3 2.7 -2.6 4.9 -2.8 4.9 -0.2 0 -0.7 -1.8 -1.1 -4z"/>
  <path d="M415.2 271.4 c-1.8 -3.2 -18.8 -19.6 -23.4 -22.6 -4.9 -3.2 -5.6 -4.2 -3.8 -5.3 1.8 -1.1 8.6 3.4 15.8 10.6 6.3 6.4 14.2 16.5 14.2 18.3 0 1.2 -1.9 0.5 -2.8 -1z"/>
  <path d="M433.5 258.4 c-6.4 -9.8 -23.2 -25.7 -35.2 -33.3 -5.2 -3.3 -6.2 -4.4 -4.4 -5.5 1.6 -1 16.3 9.6 24.2 17.4 9.2 9.1 20.4 24 18.1 24 -0.5 0 -1.7 -1.2 -2.7 -2.6z"/>
  <path d="M315 186.4 c-3.6 -0.7 -8.2 -1.3 -10.3 -1.4 -4.6 0 -4.6 -2 -0.1 -3.2 5.5 -1.5 19.4 2.2 19.4 5.2 0 1.2 -0.6 1.2 -9 -0.6z"/>
  <path d="M406 179.6 c-0.9 -1.1 -0.9 -2 0.1 -3.8 2.7 -5.1 27.1 -43.8 28 -44.3 1.3 -0.9 1.1 0.9 -0.5 4.2 -0.8 1.5 -3.9 8 -6.9 14.3 -5.2 10.8 -16.3 29 -18.5 30.4 -0.5 0.3 -1.5 -0.1 -2.2 -0.8z"/>
  <path d="M390 165.8 c-23.1 -20 -42.2 -43.3 -49.2 -60 -1.7 -3.9 -4.1 -11.4 -5.5 -16.7 -2.4 -8.7 -2.6 -11.5 -2.7 -29.1 -0.1 -16.5 0.3 -21.5 2.3 -32.5 2.1 -11.7 5.7 -24.2 6.7 -23.3 0.2 0.2 -0.3 4.4 -1.1 9.3 -3 18 -1.2 41.6 4.4 57.6 8.6 24.9 33.5 56.4 62.2 78.5 3.3 2.5 5.9 4.7 5.9 4.9 0 0.8 -12.2 19 -12.8 19.2 -0.4 0.2 -5 -3.4 -10.2 -7.9z"/>
  <path d="M298 158.3 c-3 -0.2 -6.2 -0.6 -7 -0.9 -5.2 -1.9 12.6 -3.3 18.9 -1.5 1.4 0.4 2.6 1.2 2.9 1.9 0.4 1.2 -1.8 1.3 -14.8 0.5z"/>
 </g>
</svg>