<svg width="48" height="49" viewBox="0 0 48 49" fill="none" xmlns="http://www.w3.org/2000/svg">
<path d="M14.4985 12.6381C15.7872 9.15565 20.7127 9.15565 22.0014 12.6381L24.0938 18.293C24.499 19.3878 25.3622 20.2511 26.4571 20.6562L32.1119 22.7487C35.5944 24.0373 35.5944 28.9629 32.1119 30.2515L26.4571 32.344C25.3622 32.7491 24.499 33.6124 24.0938 34.7072L22.0014 40.3621C20.7127 43.8445 15.7872 43.8445 14.4985 40.3621L12.4061 34.7072C12.0009 33.6124 11.1377 32.7491 10.0428 32.344L4.38798 30.2515C0.905505 28.9629 0.905505 24.0373 4.38798 22.7487L10.0428 20.6562C11.1377 20.2511 12.0009 19.3878 12.4061 18.293L14.4985 12.6381Z" fill="url(#paint0_linear_70_356)"/>
<path d="M35.1243 4.56911C35.7686 2.82787 38.2313 2.82787 38.8757 4.56911L39.9219 7.39653C40.1245 7.94396 40.5561 8.37559 41.1035 8.57816L43.9309 9.6244C45.6722 10.2687 45.6722 12.7315 43.9309 13.3758L41.1035 14.422C40.5561 14.6246 40.1245 15.0562 39.9219 15.6037L38.8757 18.4311C38.2313 20.1723 35.7686 20.1723 35.1243 18.4311L34.078 15.6037C33.8754 15.0562 33.4438 14.6246 32.8964 14.422L30.069 13.3758C28.3277 12.7315 28.3277 10.2687 30.069 9.6244L32.8964 8.57816C33.4438 8.37559 33.8754 7.94397 34.078 7.39653L35.1243 4.56911Z" fill="url(#paint1_linear_70_356)"/>
<defs>
<linearGradient id="paint0_linear_70_356" x1="31" y1="3" x2="8.99997" y2="48" gradientUnits="userSpaceOnUse">
<stop stop-color="#994AFF"/>
<stop offset="0.76" stop-color="#C7EED5"/>
</linearGradient>
<linearGradient id="paint1_linear_70_356" x1="31" y1="3" x2="8.99997" y2="48" gradientUnits="userSpaceOnUse">
<stop stop-color="#994AFF"/>
<stop offset="0.76" stop-color="#C7EED5"/>
</linearGradient>
</defs>
</svg>
