<svg width="47" height="42" viewBox="0 0 47 42" fill="none" xmlns="http://www.w3.org/2000/svg">
<path d="M23.5 42C22.7975 41.9991 22.1115 41.7868 21.5312 41.3908C12.9355 35.5556 9.21343 31.5547 7.16046 29.0533C2.78546 23.7213 0.690931 18.247 0.749994 12.3189C0.8189 5.52563 6.26906 0 12.8994 0C17.7206 0 21.0598 2.71578 23.0045 4.97766C23.0661 5.04859 23.1422 5.10546 23.2277 5.14444C23.3132 5.18342 23.406 5.20359 23.5 5.20359C23.5939 5.20359 23.6868 5.18342 23.7723 5.14444C23.8577 5.10546 23.9339 5.04859 23.9955 4.97766C25.9401 2.71359 29.2794 0 34.1006 0C40.7309 0 46.1811 5.52563 46.25 12.32C46.3091 18.2492 44.2123 23.7234 39.8395 29.0544C37.7866 31.5558 34.0645 35.5567 25.4687 41.3919C24.8884 41.7875 24.2024 41.9994 23.5 42Z" fill="#1DB954"/>
</svg>
