<svg width="56" height="56" viewBox="0 0 56 56" fill="none" xmlns="http://www.w3.org/2000/svg">
<path d="M26.5929 47.5634L26.595 47.5648C27.0092 47.8476 27.4989 47.9992 28.0004 48C28.5017 47.9994 28.9912 47.848 29.4054 47.5656L29.4071 47.5645C37.9295 41.7791 41.5788 37.8419 43.5664 35.4202C47.8158 30.2397 49.8064 24.9873 49.75 19.3301C49.6865 13.0614 44.6602 8 38.6006 8C34.1888 8 31.1021 10.4777 29.2541 12.6292L29.2505 12.6334C29.095 12.8124 28.9029 12.9559 28.6872 13.0543L28.2723 12.1444L28.6872 13.0543C28.4714 13.1527 28.2371 13.2036 28 13.2036C27.7629 13.2036 27.5286 13.1527 27.3128 13.0543L27.7277 12.1444L27.3128 13.0543C27.0971 12.9559 26.905 12.8124 26.7495 12.6334L26.7463 12.6296C24.8978 10.4796 21.811 8 17.3994 8C11.3398 8 6.31362 13.0614 6.24995 19.3289L26.5929 47.5634ZM26.5929 47.5634C18.0704 41.778 14.4211 37.8407 12.4335 35.419M26.5929 47.5634L12.4335 35.419M12.4335 35.419C8.18215 30.2376 6.19364 24.9853 6.24995 19.329L12.4335 35.419Z" stroke="black" stroke-width="2"/>
<path d="M10.0726 1.10982C10.6202 -0.36994 12.7131 -0.36994 13.2607 1.10982L14.1498 3.51265C14.322 3.97788 14.6888 4.34469 15.154 4.51684L17.5568 5.40597C19.0366 5.95353 19.0366 8.04647 17.5568 8.59403L15.154 9.48316C14.6888 9.65531 14.322 10.0221 14.1498 10.4874L13.2607 12.8902C12.7131 14.3699 10.6202 14.3699 10.0726 12.8902L9.1835 10.4874C9.01135 10.0221 8.64455 9.65531 8.17932 9.48316L5.77648 8.59403C4.29672 8.04647 4.29672 5.95353 5.77648 5.40597L8.17931 4.51684C8.64454 4.34469 9.01135 3.97788 9.1835 3.51265L10.0726 1.10982Z" fill="#F2C94C"/>
<path d="M10.0726 1.10982C10.6202 -0.36994 12.7131 -0.36994 13.2607 1.10982L14.1498 3.51265C14.322 3.97788 14.6888 4.34469 15.154 4.51684L17.5568 5.40597C19.0366 5.95353 19.0366 8.04647 17.5568 8.59403L15.154 9.48316C14.6888 9.65531 14.322 10.0221 14.1498 10.4874L13.2607 12.8902C12.7131 14.3699 10.6202 14.3699 10.0726 12.8902L9.1835 10.4874C9.01135 10.0221 8.64455 9.65531 8.17932 9.48316L5.77648 8.59403C4.29672 8.04647 4.29672 5.95353 5.77648 5.40597L8.17931 4.51684C8.64454 4.34469 9.01135 3.97788 9.1835 3.51265L10.0726 1.10982Z" fill="url(#paint0_linear_14_49)"/>
<path d="M43.2706 31.0732C43.6357 30.0867 45.031 30.0867 45.396 31.0732L45.9888 32.6751C46.1035 32.9853 46.3481 33.2298 46.6582 33.3446L48.2601 33.9373C49.2466 34.3024 49.2466 35.6977 48.2601 36.0627L46.6582 36.6554C46.3481 36.7702 46.1035 37.0147 45.9888 37.3249L45.396 38.9268C45.031 39.9133 43.6357 39.9133 43.2706 38.9268L42.6779 37.3249C42.5631 37.0147 42.3186 36.7702 42.0084 36.6554L40.4065 36.0627C39.42 35.6977 39.42 34.3024 40.4065 33.9373L42.0084 33.3446C42.3186 33.2298 42.5631 32.9853 42.6779 32.6751L43.2706 31.0732Z" fill="#F2C94C"/>
<path d="M43.2706 31.0732C43.6357 30.0867 45.031 30.0867 45.396 31.0732L45.9888 32.6751C46.1035 32.9853 46.3481 33.2298 46.6582 33.3446L48.2601 33.9373C49.2466 34.3024 49.2466 35.6977 48.2601 36.0627L46.6582 36.6554C46.3481 36.7702 46.1035 37.0147 45.9888 37.3249L45.396 38.9268C45.031 39.9133 43.6357 39.9133 43.2706 38.9268L42.6779 37.3249C42.5631 37.0147 42.3186 36.7702 42.0084 36.6554L40.4065 36.0627C39.42 35.6977 39.42 34.3024 40.4065 33.9373L42.0084 33.3446C42.3186 33.2298 42.5631 32.9853 42.6779 32.6751L43.2706 31.0732Z" fill="url(#paint1_linear_14_49)"/>
<path d="M10.604 38.0732C10.969 37.0867 12.3643 37.0867 12.7294 38.0732L13.3221 39.6751C13.4369 39.9853 13.6814 40.2298 13.9916 40.3446L15.5935 40.9373C16.58 41.3024 16.58 42.6977 15.5935 43.0627L13.9916 43.6554C13.6814 43.7702 13.4369 44.0147 13.3221 44.3249L12.7294 45.9268C12.3643 46.9133 10.969 46.9133 10.604 45.9268L10.0112 44.3249C9.89646 44.0147 9.65192 43.7702 9.34176 43.6554L7.73988 43.0627C6.75337 42.6977 6.75337 41.3024 7.73988 40.9373L9.34176 40.3446C9.65192 40.2298 9.89646 39.9853 10.0112 39.6751L10.604 38.0732Z" fill="#F2C94C"/>
<path d="M10.604 38.0732C10.969 37.0867 12.3643 37.0867 12.7294 38.0732L13.3221 39.6751C13.4369 39.9853 13.6814 40.2298 13.9916 40.3446L15.5935 40.9373C16.58 41.3024 16.58 42.6977 15.5935 43.0627L13.9916 43.6554C13.6814 43.7702 13.4369 44.0147 13.3221 44.3249L12.7294 45.9268C12.3643 46.9133 10.969 46.9133 10.604 45.9268L10.0112 44.3249C9.89646 44.0147 9.65192 43.7702 9.34176 43.6554L7.73988 43.0627C6.75337 42.6977 6.75337 41.3024 7.73988 40.9373L9.34176 40.3446C9.65192 40.2298 9.89646 39.9853 10.0112 39.6751L10.604 38.0732Z" fill="url(#paint2_linear_14_49)"/>
<defs>
<linearGradient id="paint0_linear_14_49" x1="33.8333" y1="-8.16667" x2="24.5467" y2="64.2927" gradientUnits="userSpaceOnUse">
<stop stop-color="#994AFF"/>
<stop offset="0.76" stop-color="#C7EED5"/>
</linearGradient>
<linearGradient id="paint1_linear_14_49" x1="33.8333" y1="-8.16667" x2="24.5467" y2="64.2927" gradientUnits="userSpaceOnUse">
<stop stop-color="#994AFF"/>
<stop offset="0.76" stop-color="#C7EED5"/>
</linearGradient>
<linearGradient id="paint2_linear_14_49" x1="33.8333" y1="-8.16667" x2="24.5467" y2="64.2927" gradientUnits="userSpaceOnUse">
<stop stop-color="#994AFF"/>
<stop offset="0.76" stop-color="#C7EED5"/>
</linearGradient>
</defs>
</svg>
