<svg width="49" height="49" viewBox="0 0 49 49" fill="none" xmlns="http://www.w3.org/2000/svg">
<g clip-path="url(#clip0_41_312)">
<path d="M0.5 24.5C0.5 18.1348 3.02856 12.0303 7.52944 7.52944C12.0303 3.02856 18.1348 0.5 24.5 0.5C30.8652 0.5 36.9697 3.02856 41.4706 7.52944C45.9714 12.0303 48.5 18.1348 48.5 24.5C48.5 30.8652 45.9714 36.9697 41.4706 41.4706C36.9697 45.9714 30.8652 48.5 24.5 48.5C18.1348 48.5 12.0303 45.9714 7.52944 41.4706C3.02856 36.9697 0.5 30.8652 0.5 24.5ZM24.5 15.5C26.8869 15.5 29.1761 16.4482 30.864 18.136C32.5518 19.8239 33.5 22.1131 33.5 24.5C33.5 26.8869 32.5518 29.1761 30.864 30.864C29.1761 32.5518 26.8869 33.5 24.5 33.5C22.1131 33.5 19.8239 32.5518 18.136 30.864C16.4482 29.1761 15.5 26.8869 15.5 24.5C15.5 22.1131 16.4482 19.8239 18.136 18.136C19.8239 16.4482 22.1131 15.5 24.5 15.5ZM24.5 36.5C27.6826 36.5 30.7348 35.2357 32.9853 32.9853C35.2357 30.7348 36.5 27.6826 36.5 24.5C36.5 21.3174 35.2357 18.2652 32.9853 16.0147C30.7348 13.7643 27.6826 12.5 24.5 12.5C21.3174 12.5 18.2652 13.7643 16.0147 16.0147C13.7643 18.2652 12.5 21.3174 12.5 24.5C12.5 27.6826 13.7643 30.7348 16.0147 32.9853C18.2652 35.2357 21.3174 36.5 24.5 36.5ZM24.5 27.5C25.2956 27.5 26.0587 27.1839 26.6213 26.6213C27.1839 26.0587 27.5 25.2956 27.5 24.5C27.5 23.7044 27.1839 22.9413 26.6213 22.3787C26.0587 21.8161 25.2956 21.5 24.5 21.5C23.7044 21.5 22.9413 21.8161 22.3787 22.3787C21.8161 22.9413 21.5 23.7044 21.5 24.5C21.5 25.2956 21.8161 26.0587 22.3787 26.6213C22.9413 27.1839 23.7044 27.5 24.5 27.5Z" fill="#C7EED5"/>
<path d="M0.5 24.5C0.5 18.1348 3.02856 12.0303 7.52944 7.52944C12.0303 3.02856 18.1348 0.5 24.5 0.5C30.8652 0.5 36.9697 3.02856 41.4706 7.52944C45.9714 12.0303 48.5 18.1348 48.5 24.5C48.5 30.8652 45.9714 36.9697 41.4706 41.4706C36.9697 45.9714 30.8652 48.5 24.5 48.5C18.1348 48.5 12.0303 45.9714 7.52944 41.4706C3.02856 36.9697 0.5 30.8652 0.5 24.5ZM24.5 15.5C26.8869 15.5 29.1761 16.4482 30.864 18.136C32.5518 19.8239 33.5 22.1131 33.5 24.5C33.5 26.8869 32.5518 29.1761 30.864 30.864C29.1761 32.5518 26.8869 33.5 24.5 33.5C22.1131 33.5 19.8239 32.5518 18.136 30.864C16.4482 29.1761 15.5 26.8869 15.5 24.5C15.5 22.1131 16.4482 19.8239 18.136 18.136C19.8239 16.4482 22.1131 15.5 24.5 15.5ZM24.5 36.5C27.6826 36.5 30.7348 35.2357 32.9853 32.9853C35.2357 30.7348 36.5 27.6826 36.5 24.5C36.5 21.3174 35.2357 18.2652 32.9853 16.0147C30.7348 13.7643 27.6826 12.5 24.5 12.5C21.3174 12.5 18.2652 13.7643 16.0147 16.0147C13.7643 18.2652 12.5 21.3174 12.5 24.5C12.5 27.6826 13.7643 30.7348 16.0147 32.9853C18.2652 35.2357 21.3174 36.5 24.5 36.5ZM24.5 27.5C25.2956 27.5 26.0587 27.1839 26.6213 26.6213C27.1839 26.0587 27.5 25.2956 27.5 24.5C27.5 23.7044 27.1839 22.9413 26.6213 22.3787C26.0587 21.8161 25.2956 21.5 24.5 21.5C23.7044 21.5 22.9413 21.8161 22.3787 22.3787C21.8161 22.9413 21.5 23.7044 21.5 24.5C21.5 25.2956 21.8161 26.0587 22.3787 26.6213C22.9413 27.1839 23.7044 27.5 24.5 27.5Z" fill="url(#paint0_linear_41_312)"/>
</g>
<defs>
<linearGradient id="paint0_linear_41_312" x1="38" y1="-16.5" x2="20.6448" y2="55.8835" gradientUnits="userSpaceOnUse">
<stop stop-color="#994AFF"/>
<stop offset="0.76" stop-color="#C7EED5"/>
</linearGradient>
<clipPath id="clip0_41_312">
<rect width="48" height="48" fill="white" transform="translate(0.5 0.5)"/>
</clipPath>
</defs>
</svg>
