<svg width="42" height="49" viewBox="0 0 42 49" fill="none" xmlns="http://www.w3.org/2000/svg">
<g clip-path="url(#clip0_70_361)">
<path d="M0.304851 40.4009C0.341316 38.8668 0.838806 37.5149 1.79472 36.3637C2.37425 35.6656 2.62691 34.9689 2.48886 34.0442C2.34691 33.0844 2.87174 32.3004 3.47733 31.5828C5.46468 29.2282 7.43772 26.8632 9.42116 24.5059C12.5363 20.8034 15.6528 17.1035 18.7719 13.4049C19.3163 12.7589 19.3892 12.7667 19.7109 13.5898C20.211 14.8687 20.7879 16.0981 21.6735 17.1673C22.718 18.4267 24.0008 19.3657 25.4581 20.0845C25.7889 20.2473 26.1353 20.3828 26.4504 20.5716C27.0469 20.9284 27.1133 21.4285 26.6028 21.8948C25.9152 22.5251 25.2015 23.1268 24.4852 23.7246C19.0363 28.2671 13.5717 32.7927 8.14358 37.3613C7.23976 38.1218 6.31901 38.1765 5.29538 37.8601C4.88775 37.7337 4.61036 37.8158 4.30561 38.1036C3.28849 39.0686 3.05147 40.5676 3.82766 41.8582C4.68589 43.2843 5.96869 44.2571 7.51065 44.8236C8.6033 45.2247 9.60479 44.8861 10.424 44.0539C12.1795 42.2723 13.7215 40.3136 15.2387 38.3315C16.3847 36.8338 17.5021 35.2945 18.9803 34.0976C21.6266 31.954 24.6337 31.4995 27.8765 32.3655C30.7976 33.1456 33.1614 34.836 35.2373 36.9667C36.8053 38.5763 38.0842 40.4087 39.2133 42.3466C39.3435 42.5706 39.4685 42.8024 39.5623 43.0446C39.8801 43.8638 39.6066 44.5957 38.859 44.9721C38.1649 45.3224 37.3978 45.0984 36.9589 44.3639C35.8311 42.4781 34.5965 40.6731 33.0676 39.0855C31.8551 37.8262 30.5033 36.7466 28.9314 35.9626C25.2575 34.1328 21.7217 34.8946 19.1743 38.114C17.5594 40.1548 16.024 42.2606 14.4052 44.2988C13.6524 45.2482 12.8333 46.1598 11.8148 46.8474C9.78321 48.2201 7.6539 48.392 5.48162 47.2303C3.69221 46.2731 2.21667 44.9434 1.12402 43.2178C0.577038 42.3544 0.325688 41.3972 0.302246 40.4009H0.304851Z" fill="#C7EED5"/>
<path d="M0.304851 40.4009C0.341316 38.8668 0.838806 37.5149 1.79472 36.3637C2.37425 35.6656 2.62691 34.9689 2.48886 34.0442C2.34691 33.0844 2.87174 32.3004 3.47733 31.5828C5.46468 29.2282 7.43772 26.8632 9.42116 24.5059C12.5363 20.8034 15.6528 17.1035 18.7719 13.4049C19.3163 12.7589 19.3892 12.7667 19.7109 13.5898C20.211 14.8687 20.7879 16.0981 21.6735 17.1673C22.718 18.4267 24.0008 19.3657 25.4581 20.0845C25.7889 20.2473 26.1353 20.3828 26.4504 20.5716C27.0469 20.9284 27.1133 21.4285 26.6028 21.8948C25.9152 22.5251 25.2015 23.1268 24.4852 23.7246C19.0363 28.2671 13.5717 32.7927 8.14358 37.3613C7.23976 38.1218 6.31901 38.1765 5.29538 37.8601C4.88775 37.7337 4.61036 37.8158 4.30561 38.1036C3.28849 39.0686 3.05147 40.5676 3.82766 41.8582C4.68589 43.2843 5.96869 44.2571 7.51065 44.8236C8.6033 45.2247 9.60479 44.8861 10.424 44.0539C12.1795 42.2723 13.7215 40.3136 15.2387 38.3315C16.3847 36.8338 17.5021 35.2945 18.9803 34.0976C21.6266 31.954 24.6337 31.4995 27.8765 32.3655C30.7976 33.1456 33.1614 34.836 35.2373 36.9667C36.8053 38.5763 38.0842 40.4087 39.2133 42.3466C39.3435 42.5706 39.4685 42.8024 39.5623 43.0446C39.8801 43.8638 39.6066 44.5957 38.859 44.9721C38.1649 45.3224 37.3978 45.0984 36.9589 44.3639C35.8311 42.4781 34.5965 40.6731 33.0676 39.0855C31.8551 37.8262 30.5033 36.7466 28.9314 35.9626C25.2575 34.1328 21.7217 34.8946 19.1743 38.114C17.5594 40.1548 16.024 42.2606 14.4052 44.2988C13.6524 45.2482 12.8333 46.1598 11.8148 46.8474C9.78321 48.2201 7.6539 48.392 5.48162 47.2303C3.69221 46.2731 2.21667 44.9434 1.12402 43.2178C0.577038 42.3544 0.325688 41.3972 0.302246 40.4009H0.304851Z" fill="url(#paint0_linear_70_361)"/>
<path d="M20.8726 9.6788C20.8465 7.7748 21.189 6.2706 21.9379 4.86148C22.5148 3.77534 22.6906 3.74799 23.4147 4.71953C24.2821 5.88381 25.1025 7.08326 26.0467 8.18894C28.654 11.2416 31.6415 13.8619 34.9885 16.0746C36.4628 17.0487 36.4602 17.3508 34.9781 18.312C31.9424 20.2811 27.5744 19.9607 24.7092 17.5605C22.1879 15.4481 20.8765 12.6442 20.8726 9.68011V9.6788Z" fill="#C7EED5"/>
<path d="M20.8726 9.6788C20.8465 7.7748 21.189 6.2706 21.9379 4.86148C22.5148 3.77534 22.6906 3.74799 23.4147 4.71953C24.2821 5.88381 25.1025 7.08326 26.0467 8.18894C28.654 11.2416 31.6415 13.8619 34.9885 16.0746C36.4628 17.0487 36.4602 17.3508 34.9781 18.312C31.9424 20.2811 27.5744 19.9607 24.7092 17.5605C22.1879 15.4481 20.8765 12.6442 20.8726 9.68011V9.6788Z" fill="url(#paint1_linear_70_361)"/>
<path d="M40.0181 10.3718C40.0689 11.3876 39.8944 12.4086 39.5623 13.4049C39.2016 14.4845 38.329 14.8362 37.364 14.2501C34.0378 12.2302 31.1076 9.74013 28.5771 6.78254C27.6877 5.74458 26.8411 4.67146 26.0988 3.5215C25.3083 2.29601 25.5779 1.48596 26.9245 0.906424C32.8787 -1.65266 38.8538 2.58903 39.8827 8.3232C40.0025 8.98869 40.0377 9.65809 40.0181 10.3705V10.3718Z" fill="#C7EED5"/>
<path d="M40.0181 10.3718C40.0689 11.3876 39.8944 12.4086 39.5623 13.4049C39.2016 14.4845 38.329 14.8362 37.364 14.2501C34.0378 12.2302 31.1076 9.74013 28.5771 6.78254C27.6877 5.74458 26.8411 4.67146 26.0988 3.5215C25.3083 2.29601 25.5779 1.48596 26.9245 0.906424C32.8787 -1.65266 38.8538 2.58903 39.8827 8.3232C40.0025 8.98869 40.0377 9.65809 40.0181 10.3705V10.3718Z" fill="url(#paint2_linear_70_361)"/>
</g>
<defs>
<linearGradient id="paint0_linear_70_361" x1="40.5" y1="-16" x2="8.28551" y2="53.107" gradientUnits="userSpaceOnUse">
<stop stop-color="#994AFF"/>
<stop offset="0.76" stop-color="#C7EED5"/>
</linearGradient>
<linearGradient id="paint1_linear_70_361" x1="40.5" y1="-16" x2="8.28551" y2="53.107" gradientUnits="userSpaceOnUse">
<stop stop-color="#994AFF"/>
<stop offset="0.76" stop-color="#C7EED5"/>
</linearGradient>
<linearGradient id="paint2_linear_70_361" x1="40.5" y1="-16" x2="8.28551" y2="53.107" gradientUnits="userSpaceOnUse">
<stop stop-color="#994AFF"/>
<stop offset="0.76" stop-color="#C7EED5"/>
</linearGradient>
<clipPath id="clip0_70_361">
<rect width="41" height="49" fill="white" transform="translate(0.5)"/>
</clipPath>
</defs>
</svg>
