<svg width="114" height="69" viewBox="0 0 114 69" fill="none" xmlns="http://www.w3.org/2000/svg">
<g clip-path="url(#clip0_41_290)">
<path d="M26.7039 16.815C17.0194 21.3721 12.8652 32.911 17.4223 42.5955C21.9795 52.28 33.5183 56.4342 43.2028 51.877C52.8873 47.3199 57.0415 35.781 52.4844 26.0965C47.9272 16.4121 36.3884 12.2578 26.7039 16.815ZM37.9474 26.0297C39.1986 25.4409 40.6851 25.9761 41.2739 27.2273C41.8627 28.4785 41.3275 29.9651 40.0763 30.5538C38.8251 31.1426 37.3386 30.6074 36.7498 29.3562C36.161 28.105 36.6962 26.6185 37.9474 26.0297ZM26.6371 31.352C27.8883 30.7632 29.3748 31.2984 29.9636 32.5496C30.5523 33.8008 30.0172 35.2873 28.766 35.8761C27.5148 36.4649 26.0282 35.9297 25.4394 34.6785C24.8507 33.4273 25.3859 31.9407 26.6371 31.352ZM46.0689 36.9035C45.1919 40.2691 42.8891 43.0451 39.7434 44.5253C36.5977 46.0056 32.9909 46.0105 29.8386 44.5409C28.335 43.8411 29.3954 41.5807 30.8956 42.2735C33.3739 43.4299 36.2015 43.4204 38.6756 42.2562C41.1497 41.0919 42.9561 38.9123 43.6481 36.2727C44.0564 34.6817 46.481 35.3022 46.0689 36.9035Z" fill="#C7EED5"/>
<path d="M26.7039 16.815C17.0194 21.3721 12.8652 32.911 17.4223 42.5955C21.9795 52.28 33.5183 56.4342 43.2028 51.877C52.8873 47.3199 57.0415 35.781 52.4844 26.0965C47.9272 16.4121 36.3884 12.2578 26.7039 16.815ZM37.9474 26.0297C39.1986 25.4409 40.6851 25.9761 41.2739 27.2273C41.8627 28.4785 41.3275 29.9651 40.0763 30.5538C38.8251 31.1426 37.3386 30.6074 36.7498 29.3562C36.161 28.105 36.6962 26.6185 37.9474 26.0297ZM26.6371 31.352C27.8883 30.7632 29.3748 31.2984 29.9636 32.5496C30.5523 33.8008 30.0172 35.2873 28.766 35.8761C27.5148 36.4649 26.0282 35.9297 25.4394 34.6785C24.8507 33.4273 25.3859 31.9407 26.6371 31.352ZM46.0689 36.9035C45.1919 40.2691 42.8891 43.0451 39.7434 44.5253C36.5977 46.0056 32.9909 46.0105 29.8386 44.5409C28.335 43.8411 29.3954 41.5807 30.8956 42.2735C33.3739 43.4299 36.2015 43.4204 38.6756 42.2562C41.1497 41.0919 42.9561 38.9123 43.6481 36.2727C44.0564 34.6817 46.481 35.3022 46.0689 36.9035Z" fill="url(#paint0_linear_41_290)"/>
</g>
<g clip-path="url(#clip1_41_290)">
<path d="M87.296 16.8149C77.6116 12.2577 66.0727 16.412 61.5155 26.0965C56.9584 35.7809 61.1126 47.3198 70.7971 51.877C80.4816 56.4341 92.0204 52.2799 96.5776 42.5954C101.135 32.9109 96.9805 21.3721 87.296 16.8149ZM87.3629 31.3519C88.6141 31.9407 89.1492 33.4272 88.5605 34.6784C87.9717 35.9296 86.4852 36.4648 85.234 35.876C83.9828 35.2872 83.4476 33.8007 84.0363 32.5495C84.6251 31.2983 86.1116 30.7631 87.3629 31.3519ZM76.0525 26.0296C77.3037 26.6184 77.8389 28.1049 77.2501 29.3562C76.6614 30.6074 75.1748 31.1425 73.9236 30.5538C72.6724 29.965 72.1372 28.4785 72.726 27.2273C73.3148 25.9761 74.8013 25.4409 76.0525 26.0296ZM84.1613 44.5408C81.009 46.0104 77.4022 46.0055 74.2565 44.5252C71.1109 43.045 68.808 40.269 67.931 36.9034C67.5118 35.2988 69.9294 34.675 70.3519 36.2726C71.0405 38.9192 72.8502 41.0919 75.3243 42.2561C77.7985 43.4203 80.6293 43.4228 83.1043 42.2734C84.5904 41.574 85.6578 43.8377 84.1613 44.5408Z" fill="#C7EED5"/>
<path d="M87.296 16.8149C77.6116 12.2577 66.0727 16.412 61.5155 26.0965C56.9584 35.7809 61.1126 47.3198 70.7971 51.877C80.4816 56.4341 92.0204 52.2799 96.5776 42.5954C101.135 32.9109 96.9805 21.3721 87.296 16.8149ZM87.3629 31.3519C88.6141 31.9407 89.1492 33.4272 88.5605 34.6784C87.9717 35.9296 86.4852 36.4648 85.234 35.876C83.9828 35.2872 83.4476 33.8007 84.0363 32.5495C84.6251 31.2983 86.1116 30.7631 87.3629 31.3519ZM76.0525 26.0296C77.3037 26.6184 77.8389 28.1049 77.2501 29.3562C76.6614 30.6074 75.1748 31.1425 73.9236 30.5538C72.6724 29.965 72.1372 28.4785 72.726 27.2273C73.3148 25.9761 74.8013 25.4409 76.0525 26.0296ZM84.1613 44.5408C81.009 46.0104 77.4022 46.0055 74.2565 44.5252C71.1109 43.045 68.808 40.269 67.931 36.9034C67.5118 35.2988 69.9294 34.675 70.3519 36.2726C71.0405 38.9192 72.8502 41.0919 75.3243 42.2561C77.7985 43.4203 80.6293 43.4228 83.1043 42.2734C84.5904 41.574 85.6578 43.8377 84.1613 44.5408Z" fill="url(#paint1_linear_41_290)"/>
</g>
<defs>
<linearGradient id="paint0_linear_41_290" x1="19.1001" y1="13.5045" x2="56.9759" y2="48.4727" gradientUnits="userSpaceOnUse">
<stop stop-color="#994AFF"/>
<stop offset="0.76" stop-color="#C7EED5"/>
</linearGradient>
<linearGradient id="paint1_linear_41_290" x1="85" y1="8.84595" x2="82.1995" y2="60.3193" gradientUnits="userSpaceOnUse">
<stop stop-color="#994AFF"/>
<stop offset="0.76" stop-color="#C7EED5"/>
</linearGradient>
<clipPath id="clip0_41_290">
<rect width="38.75" height="40" fill="white" transform="translate(8.90674 24.499) rotate(-25.2)"/>
</clipPath>
<clipPath id="clip1_41_290">
<rect width="38.75" height="40" fill="white" transform="translate(70.0311 8) rotate(25.2)"/>
</clipPath>
</defs>
</svg>
